<svg width="580" height="248" viewBox="0 0 580 248" fill="none" xmlns="http://www.w3.org/2000/svg">
<g clip-path="url(#clip0_3_122)">
<path d="M379.527 85.1274C382.021 65.49 388.621 57.4458 391.827 62.6746C395.032 67.6904 391.02 85.2694 379.432 93.2426C379.124 90.853 379.171 88.1559 379.527 85.1274ZM413.41 91.7758C406.43 103.369 387.054 110.065 381.427 99.7254C381.641 99.6307 381.759 99.6307 381.854 99.5124C400.375 92.4855 412.104 72.9428 404.957 61.7282C395.151 46.2549 363.761 59.6461 359.606 81.1053C355.807 100.956 364.877 114.347 380.026 116.145C392.919 117.707 412.912 106.042 416.83 94.8278C419.061 88.5817 416.592 86.4997 413.387 91.7521L413.41 91.7758ZM360.532 105.333C355.38 110.893 350.892 104.907 349.087 100.885C346.119 94.4729 347.496 78.1715 349.467 68.3528C353.029 50.7738 344.742 45.2848 330.424 54.2991C328.026 55.7896 328.002 75.7819 327.884 86.0502C327.86 87.7773 327.836 89.4098 327.931 91.0187C327.67 94.0471 324.441 102.233 321.259 105.214C318.077 108.101 315.513 104.079 314.539 95.0881C313.756 87.3987 315.917 78.4555 318.172 72.2093C323.23 57.8953 318.552 49.2833 301.1 55.5767C298.607 56.4048 296.494 68.9207 296.161 80.3955C295.497 100.388 297.847 113.921 310.74 115.483C317.128 116.192 324.322 113.897 328.501 109.733C329.712 108.55 330.709 107.154 331.469 105.664C334.342 111.2 338.854 114.394 345.146 115.554C353.599 117.162 360.128 114.536 364.735 110.159C372.19 102.99 366.159 99.2522 360.556 105.356L360.532 105.333ZM277.593 52.501C271.159 55.553 263.109 67.3591 258.194 80.1589C259.477 73.2504 261.614 66.6967 263.964 60.214C268.001 48.8101 260.806 42.8715 248.293 46.0892C246.227 46.6097 242.262 61.5862 242.072 78.5501C241.835 99.2048 242.784 111.106 244.826 112.643C250.739 117.257 261.4 114.016 260.355 110.987C260.046 109.804 259.619 108.598 259.31 107.415C259.31 107.083 259.31 106.776 259.215 106.445C257.316 93.0297 265.436 74.528 272.014 69.6068C274.317 67.9033 277.546 69.9854 276.05 76.4681C275.48 79.0469 292.291 80.3246 294.713 67.714C297.254 54.5593 289.086 47.012 277.641 52.501H277.593ZM318.742 2.36647C302.857 27.5165 252.021 21.3887 231.363 15.9707C231.933 12.9423 232.931 10.6946 234.806 9.417C238.534 6.86177 235.97 2.50842 230.604 6.34126C227.754 8.47062 225.332 10.8129 223.243 13.6047C220.655 12.7057 217.948 11.8066 215.241 10.8129C194.702 3.4548 165.972 12.7293 159.418 35.5844C153.079 57.6824 172.335 72.7062 189.312 69.1099C201.588 66.6494 209.115 55.5057 206.028 49.3069C202.111 41.2627 193.112 41.1681 189.431 48.5735C181.667 64.378 163.17 58.2266 169.605 36.4598C173.784 22.2405 190.808 23.1868 209.281 30.6396C211.11 31.4203 212.962 32.0828 214.79 32.6506C212.843 40.9551 212.083 50.6792 211.964 61.4916C211.656 89.0549 205.031 107.367 198.003 106.303C188.576 104.788 197.647 89.6464 195.059 87.5644C187.745 81.9571 180.337 85.0091 177.464 89.4098C173.166 96.0581 177.44 111.248 194.228 113.921C216.761 117.517 233.619 94.6859 233.952 65.9396C234.07 54.7959 232.907 44.4094 232.028 35.5371C250.786 36.2942 302.335 36.6728 321.971 7.59522C326.507 0.875917 321.971 -2.67301 318.766 2.36647H318.742Z" fill="white"/>
<path fill-rule="evenodd" clip-rule="evenodd" d="M380.691 135.617C380.691 135.617 398.285 113.33 432.335 115.719C466.384 118.109 483.788 119.292 492.218 93.8341C499.602 71.4759 486.471 61.3733 472.177 61.5389C447.317 61.7992 446.937 98.2111 468.26 99.5361C472.724 99.82 467.452 107.959 458.073 108.172C424.19 108.929 388.218 112.62 380.715 135.664L380.691 135.617ZM471.774 95.5376C473.103 94.1654 477.876 69.3939 465.956 72.375C458.667 74.1967 458.548 85.1747 462.11 91.6811C464.366 95.7979 468.592 97.9036 471.774 95.5376Z" fill="white"/>
<path fill-rule="evenodd" clip-rule="evenodd" d="M396.6 33.81C413.031 30.8998 436.039 37.2169 444.349 60.6872C444.349 60.6872 450.95 51.2234 461.065 46.9173C471.251 42.5876 488.727 43.8416 497.18 56.2865C497.18 56.2865 488.371 17.059 446.462 37.7848C442.283 29.5986 422.362 20.4423 396.623 33.81H396.6Z" fill="white"/>
<path fill-rule="evenodd" clip-rule="evenodd" d="M257.031 193.204C257.031 193.204 249.623 207.187 239.247 216.698C228.538 226.517 208.973 234.04 169.439 227.439C161.817 225.996 153.53 223.985 144.507 221.288C144.507 221.288 73.2509 200.184 24.789 232.171C22.6758 233.567 16.431 236.572 16.431 228.764C13.6767 227.25 47.0136 177.329 144.436 209.293C177.061 220.01 211.466 232.006 238.131 213.812C244.993 209.127 251.356 202.455 257.031 193.228V193.204Z" fill="white"/>
<path fill-rule="evenodd" clip-rule="evenodd" d="M540.49 203.449C540.49 203.449 520.521 200.184 516.579 188.307C512.638 176.429 491.197 185.325 500.576 194.553C509.955 203.78 531.965 206.051 540.49 203.449Z" fill="white"/>
<path fill-rule="evenodd" clip-rule="evenodd" d="M101.91 111.058C101.91 111.058 96.259 86.4997 67.3623 78.905C49.9578 74.3387 54.8016 63.5973 65.8901 61.042C73.2271 59.3622 84.3156 63.337 89.8718 67.5011C103.81 77.9586 102.741 98.8973 101.91 111.058Z" fill="white"/>
<path fill-rule="evenodd" clip-rule="evenodd" d="M362.337 238.583C341.893 240.499 348.589 205.199 348.898 195.499C345.692 202.573 339.471 216.651 339.044 234.443C338.593 253.418 365.637 250.294 362.337 238.607V238.583Z" fill="white"/>
<path fill-rule="evenodd" clip-rule="evenodd" d="M541.368 205.199C541.368 205.199 526.908 212.581 519.975 208.725C516.247 206.643 511.64 209.103 510.786 212.416C509.931 215.681 511.664 221.004 518.93 221.122C530.636 221.335 534.981 210.783 541.392 205.199H541.368Z" fill="white"/>
<path fill-rule="evenodd" clip-rule="evenodd" d="M251.546 196.351C230.295 228.078 181.501 217.905 190.951 199.308C196.816 187.739 215.075 198.078 210.872 206.075C218.114 218.212 241.859 207.21 251.546 196.351Z" fill="white"/>
<path d="M46.9184 90.5691C24.124 90.5691 7.78796 100.199 2.32679 115.009C-0.00014782 121.492 6.52951 123.006 8.92768 117.162C10.9459 112.076 13.5341 108.408 16.787 105.924C16.6208 113.59 16.2409 129.158 15.8847 155.964C15.4099 196.398 19.5651 196.824 33.0281 196.824C56.3449 196.824 89.6343 182.557 90.2279 138.551C90.6553 109.26 69.0718 90.5455 46.9422 90.5455L46.9184 90.5691ZM37.2308 188.614C37.2308 188.614 37.8244 183.314 38.2281 144.395C38.513 122.983 38.228 106.989 34.6189 100.719C35.3787 100.719 36.2573 100.719 37.1121 100.719C57.8408 100.719 64.228 113.59 63.8718 142.549C63.3969 181.8 49.744 190.223 37.2308 188.59V188.614Z" fill="white"/>
<path d="M147.333 171.863C140.28 183.527 120.953 190.46 115.349 180.191C115.563 180.073 115.658 180.073 115.753 179.978C134.273 172.739 146.027 153.054 138.903 141.934C129.121 126.579 97.6359 140.301 93.5519 161.832C89.7528 181.729 98.6806 195.026 113.924 196.635C126.746 198.031 146.81 186.154 150.752 174.915C152.984 168.646 150.514 166.587 147.333 171.887V171.863ZM113.45 165.593C115.966 145.909 122.591 137.817 125.773 142.999C128.954 147.967 124.942 165.593 113.331 173.709C112.998 171.343 113.07 168.622 113.45 165.593Z" fill="white"/>
<path d="M201.232 167.013C204.01 159.56 205.079 151.232 202.989 142.691C200.662 132.849 191.806 130.79 181.999 132.754C170.175 135.025 165.663 167.131 183.994 173.07C181.168 179.978 177.251 185.728 173.998 188.094C170.341 190.696 167.017 185.278 166.067 176.193C165.141 168.527 165.355 159.111 167.135 152.746C171.314 138.054 165.473 128.85 148.259 136.303C145.861 137.391 143.463 161.713 147.214 179.978C149.209 189.821 156.142 195.665 164.476 196.635C174.567 197.936 190.144 187.881 198.502 172.739C206.646 170.373 214.054 163.866 213.223 161.926C212.273 158.685 206.717 164.197 201.208 167.013H201.232ZM181.881 137.297C184.967 135.451 187.912 140.443 187.722 155.893C187.769 159.773 187.057 163.89 185.893 167.794C173.998 162.281 174.995 141.532 181.881 137.32V137.297Z" fill="white"/>
<path d="M262.753 171.863C255.701 183.527 236.374 190.46 230.77 180.191C230.984 180.073 231.079 180.073 231.174 179.978C249.694 172.739 261.447 153.054 254.324 141.934C244.542 126.579 213.057 140.301 208.973 161.832C205.174 181.729 214.102 195.026 229.345 196.635C242.167 198.031 262.231 186.154 266.173 174.915C268.405 168.646 265.935 166.587 262.753 171.887V171.863ZM228.87 165.593C231.387 145.909 238.012 137.817 241.194 142.999C244.375 147.967 240.363 165.593 228.752 173.709C228.419 171.343 228.491 168.622 228.87 165.593Z" fill="white"/>
<path d="M294.191 183.338C288.278 189.821 281.345 187.668 279.184 181.706C275.29 171.224 278.092 138.361 287.756 111.437C293.668 94.3546 287.661 87.1148 269.425 93.8105C266.695 94.7805 261.59 127.431 260.949 147.541C260.331 172.502 259.595 194.884 275.148 196.611C283.577 197.486 294.214 192.826 298.441 188.07C305.517 180.073 300.412 176.619 294.214 183.314L294.191 183.338Z" fill="white"/>
<path d="M348.968 164.623C349.087 163.653 349.135 162.778 349.04 161.926C349.752 145.175 334.864 134.363 326.103 138.148C318.908 141.177 310.075 174.679 335.292 174.04C332.917 182.25 328.145 187.124 321.853 187.124C315.014 187.124 311.12 175.554 312.189 162.47C312.853 152.084 317.365 143.448 320.167 139.781C321.14 138.48 324.583 132.328 315.252 134.812C304.662 137.628 294.618 147.565 292.125 160.436C288.112 181.516 297.776 194.387 313.162 196.54C330.424 199.024 343.317 186.059 347.496 171.343C353.337 168.858 360.199 163.227 360.057 161.619C359.938 160.436 359.226 159.56 358.134 159.56C356.828 159.56 351.438 163.44 348.945 164.647L348.968 164.623ZM326.839 144.726C330.685 139.426 337.263 144.844 337.073 161.382C337.049 163.535 336.93 165.593 336.669 167.534C322.304 166.989 324.061 148.511 326.863 144.726H326.839Z" fill="white"/>
<path d="M397.668 135.002C391.21 134.363 386.223 136.729 381.949 140.94C379.884 143.093 377.391 145.577 375.087 148.937C375.444 147.967 375.752 146.879 376.108 145.909C381.118 129.702 370.22 124.615 359.369 129.158C356.852 130.128 353.266 168.716 353.077 183.101C352.815 203.638 353.646 227.96 355.641 229.474C361.482 233.898 371.051 230.657 370.315 227.534C367.347 214.237 366.634 198.456 368.463 181.706C368.748 181.161 368.914 180.617 369.056 179.978C373.117 159.324 383.184 148.511 387.102 145.388C391.542 141.721 392.848 150.025 390.759 166.138C388.93 180.404 381.261 193.583 374.589 189.49C369.65 186.461 369.602 190.791 371.193 192.731C380.192 203.117 406.192 193.37 410.727 169.923C414.55 150.238 410.443 136.421 397.621 135.002H397.668Z" fill="white"/>
<path d="M469.091 171.863C462.039 183.527 442.711 190.46 437.107 180.191C437.321 180.073 437.416 180.073 437.511 179.978C456.031 172.739 467.785 153.054 460.662 141.934C450.879 126.579 419.394 140.301 415.31 161.832C411.511 181.729 420.439 195.026 435.683 196.635C448.505 198.031 468.568 186.154 472.51 174.915C474.742 168.646 472.273 166.587 469.091 171.887V171.863ZM435.208 165.593C437.725 145.909 444.349 137.817 447.531 142.999C450.713 147.967 446.7 165.593 435.089 173.709C434.757 171.343 434.828 168.622 435.208 165.593Z" fill="white"/>
<path d="M502.689 134.15C496.254 137.273 488.252 149.174 483.242 162.044C484.548 155.136 486.661 148.535 489.083 142.052C493.12 130.601 485.973 124.757 473.365 128.117C471.346 128.661 467.334 143.685 467.167 160.649C466.906 181.303 467.785 193.18 469.898 194.695C475.739 199.237 486.4 195.878 485.355 192.849C485.142 191.666 484.691 190.483 484.382 189.277C484.358 188.945 484.334 188.638 484.287 188.307C482.387 174.892 490.532 156.319 497.132 151.327C499.364 149.6 502.594 151.658 501.122 158.141C500.599 160.743 517.41 161.808 519.808 149.174C522.373 135.995 514.205 128.519 502.689 134.15Z" fill="white"/>
<path d="M546.521 139.876C542.674 141.721 543.173 137.817 545.049 132.092C549.204 120.64 541.914 115.766 529.449 119.339C527.43 119.883 520.829 129.394 524.747 141.177C526.718 147.115 530.992 150.144 536.026 151.658C534.364 159.442 532.393 163.985 530.066 167.983C529.567 167.344 529.187 166.682 528.784 165.925C527.502 163.772 516.65 167.321 517.339 177.163C518.835 203.851 569.363 204.845 576.011 171.011C580.024 149.931 564.946 131.334 546.544 139.876H546.521ZM568.983 168.101C566.181 190.578 548.729 187.242 536.477 175.672C539.136 169.19 540.751 162.163 541.867 152.983C555.377 154.71 571.048 151.8 568.983 168.125V168.101Z" fill="white"/>
</g>
<defs>
<clipPath id="clip0_3_122">
<rect width="580" height="248" fill="white"/>
</clipPath>
</defs>
</svg>
