<svg width="580" height="248" fill="none" xmlns="http://www.w3.org/2000/svg"><g clip-path="url(#clip0_3_122)" fill="#fff"><path d="M379.527 85.127c2.494-19.637 9.094-27.681 12.3-22.452 3.205 5.015-.807 22.594-12.395 30.568-.308-2.39-.261-5.087.095-8.116zm33.883 6.649c-6.98 11.593-26.356 18.289-31.983 7.95.214-.095.332-.095.427-.214 18.521-7.026 30.25-26.57 23.103-37.784-9.806-15.473-41.196-2.082-45.351 19.377-3.799 19.851 5.271 33.242 20.42 35.04 12.893 1.562 32.886-10.103 36.804-21.317 2.231-6.246-.238-8.328-3.443-3.076l.023.024zm-52.878 13.557c-5.152 5.56-9.64-.426-11.445-4.448-2.968-6.412-1.591-22.714.38-32.532 3.562-17.58-4.725-23.068-19.043-14.054-2.398 1.49-2.422 21.483-2.54 31.751-.024 1.727-.048 3.36.047 4.969-.261 3.028-3.49 11.214-6.672 14.195-3.182 2.887-5.746-1.135-6.72-10.126-.783-7.69 1.378-16.632 3.633-22.879 5.058-14.314.38-22.926-17.072-16.632-2.493.828-4.606 13.344-4.939 24.819-.664 19.992 1.686 33.525 14.579 35.087 6.388.709 13.582-1.586 17.761-5.75a15.608 15.608 0 002.968-4.069c2.873 5.536 7.385 8.73 13.677 9.89 8.453 1.608 14.982-1.018 19.589-5.395 7.455-7.169 1.424-10.907-4.179-4.803l-.024-.023zm-82.939-52.832c-6.434 3.052-14.484 14.858-19.399 27.658 1.283-6.909 3.42-13.462 5.77-19.945 4.037-11.404-3.158-17.343-15.671-14.125-2.066.52-6.031 15.497-6.221 32.461-.237 20.655.712 32.556 2.754 34.093 5.913 4.614 16.574 1.373 15.529-1.656-.309-1.183-.736-2.389-1.045-3.572 0-.332 0-.639-.095-.97-1.899-13.415 6.221-31.917 12.799-36.838 2.303-1.704 5.532.378 4.036 6.861-.57 2.579 16.241 3.857 18.663-8.754 2.541-13.155-5.627-20.702-17.072-15.213h-.048zm41.149-50.135c-15.885 25.15-66.721 19.023-87.379 13.605.57-3.029 1.568-5.276 3.443-6.554 3.728-2.555 1.164-6.909-4.202-3.076-2.85 2.13-5.272 4.472-7.361 7.264-2.588-.9-5.295-1.798-8.002-2.792-20.539-7.358-49.269 1.916-55.823 24.771-6.339 22.098 12.917 37.122 29.894 33.526 12.276-2.46 19.803-13.604 16.716-19.803-3.917-8.044-12.916-8.139-16.597-.733-7.764 15.804-26.261 9.653-19.826-12.114 4.179-14.22 21.203-13.273 39.676-5.82a57.455 57.455 0 005.509 2.01c-1.947 8.305-2.707 18.03-2.826 28.842-.308 27.563-6.933 45.875-13.961 44.811-9.427-1.515-.356-16.657-2.944-18.739-7.314-5.607-14.722-2.555-17.595 1.846-4.298 6.648-.024 21.838 16.764 24.511 22.533 3.596 39.391-19.235 39.724-47.981.118-11.144-1.045-21.53-1.924-30.403 18.758.757 70.307 1.136 89.943-27.942 4.536-6.72 0-10.268-3.205-5.229h-.024z"/><path fill-rule="evenodd" clip-rule="evenodd" d="M380.691 135.617s17.594-22.287 51.644-19.898c34.049 2.39 51.453 3.573 59.883-21.885 7.384-22.358-5.747-32.46-20.041-32.295-24.86.26-25.24 36.672-3.917 37.997 4.464.284-.808 8.423-10.187 8.636-33.883.757-69.855 4.448-77.358 27.492l-.024-.047zm91.083-40.08c1.329-1.372 6.102-26.143-5.818-23.162-7.289 1.822-7.408 12.8-3.846 19.306 2.256 4.117 6.482 6.223 9.664 3.857zM396.6 33.81c16.431-2.91 39.439 3.407 47.749 26.877 0 0 6.601-9.464 16.716-13.77 10.186-4.33 27.662-3.075 36.115 9.37 0 0-8.809-39.228-50.718-18.502-4.179-8.186-24.1-17.343-49.839-3.975h-.023zM257.031 193.204s-7.408 13.983-17.784 23.494c-10.709 9.819-30.274 17.342-69.808 10.741-7.622-1.443-15.909-3.454-24.932-6.151 0 0-71.256-21.104-119.718 10.883-2.113 1.396-8.358 4.401-8.358-3.407-2.754-1.514 30.583-51.435 128.005-19.471 32.625 10.717 67.03 22.713 93.695 4.519 6.862-4.685 13.225-11.357 18.9-20.584v-.024zm283.459 10.245s-19.969-3.265-23.911-15.142c-3.941-11.878-25.382-2.982-16.003 6.246 9.379 9.227 31.389 11.498 39.914 8.896zm-438.58-92.391S96.259 86.5 67.362 78.905c-17.404-4.566-12.56-15.308-1.472-17.863 7.337-1.68 18.426 2.295 23.982 6.46 13.938 10.457 12.869 31.395 12.038 43.556zm260.427 127.525c-20.444 1.916-13.748-33.384-13.439-43.084-3.206 7.074-9.427 21.152-9.854 38.944-.451 18.975 26.593 15.851 23.293 4.164v-.024zm179.031-33.384s-14.46 7.382-21.393 3.526c-3.728-2.082-8.335.378-9.189 3.691-.855 3.265.878 8.588 8.144 8.706 11.706.213 16.051-10.339 22.462-15.923h-.024z"/><path fill-rule="evenodd" clip-rule="evenodd" d="M251.546 196.351c-21.251 31.727-70.045 21.554-60.595 2.957 5.865-11.569 24.124-1.23 19.921 6.767 7.242 12.137 30.987 1.135 40.674-9.724z"/><path d="M46.918 90.57c-22.794 0-39.13 9.629-44.591 24.439-2.327 6.483 4.203 7.997 6.6 2.153 2.019-5.086 4.607-8.754 7.86-11.238-.166 7.666-.546 23.234-.902 50.04-.475 40.434 3.68 40.86 17.143 40.86 23.317 0 56.606-14.267 57.2-58.273.427-29.291-21.156-48.005-43.286-48.005l-.024.023zm-9.687 98.044s.593-5.3.997-44.219c.285-21.412 0-37.406-3.61-43.676h2.494c20.729 0 27.116 12.871 26.76 41.83-.475 39.251-14.128 47.674-26.641 46.041v.024zm110.102-16.751c-7.053 11.664-26.38 18.597-31.984 8.328.214-.118.309-.118.404-.213 18.52-7.239 30.274-26.924 23.15-38.044-9.782-15.355-41.267-1.633-45.351 19.898-3.8 19.897 5.129 33.194 20.372 34.803 12.822 1.396 32.886-10.481 36.828-21.72 2.232-6.269-.238-8.328-3.419-3.028v-.024zm-33.883-6.27c2.516-19.684 9.141-27.776 12.323-22.594 3.181 4.968-.831 22.594-12.442 30.71-.333-2.366-.261-5.087.119-8.116z"/><path d="M201.232 167.013c2.778-7.453 3.847-15.781 1.757-24.322-2.327-9.842-11.183-11.901-20.99-9.937-11.824 2.271-16.336 34.377 1.995 40.316-2.826 6.908-6.743 12.658-9.996 15.024-3.657 2.602-6.981-2.816-7.931-11.901-.926-7.666-.712-17.082 1.068-23.447 4.179-14.692-1.662-23.896-18.876-16.443-2.398 1.088-4.796 25.41-1.045 43.675 1.995 9.843 8.928 15.687 17.262 16.657 10.091 1.301 25.668-8.754 34.026-23.896 8.144-2.366 15.552-8.873 14.721-10.813-.95-3.241-6.506 2.271-12.015 5.087h.024zm-19.351-29.716c3.086-1.846 6.031 3.146 5.841 18.596.047 3.88-.665 7.997-1.829 11.901-11.895-5.513-10.898-26.262-4.012-30.474v-.023z"/><path d="M262.753 171.863c-7.052 11.664-26.379 18.597-31.983 8.328.214-.118.309-.118.404-.213 18.52-7.239 30.273-26.924 23.15-38.044-9.782-15.355-41.267-1.633-45.351 19.898-3.799 19.897 5.129 33.194 20.372 34.803 12.822 1.396 32.886-10.481 36.828-21.72 2.232-6.269-.238-8.328-3.42-3.028v-.024zm-33.883-6.27c2.517-19.684 9.142-27.776 12.324-22.594 3.181 4.968-.831 22.594-12.442 30.71-.333-2.366-.261-5.087.118-8.116z"/><path d="M294.191 183.338c-5.913 6.483-12.846 4.33-15.007-1.632-3.894-10.482-1.092-43.345 8.572-70.269 5.912-17.082-.095-24.322-18.331-17.626-2.73.97-7.835 33.62-8.476 53.73-.618 24.961-1.354 47.343 14.199 49.07 8.429.875 19.066-3.785 23.293-8.541 7.076-7.997 1.971-11.451-4.227-4.756l-.023.024z"/><path d="M348.968 164.623c.119-.97.167-1.845.072-2.697.712-16.751-14.176-27.563-22.937-23.778-7.195 3.029-16.028 36.531 9.189 35.892-2.375 8.21-7.147 13.084-13.439 13.084-6.839 0-10.733-11.57-9.664-24.654.664-10.386 5.176-19.022 7.978-22.689.973-1.301 4.416-7.453-4.915-4.969-10.59 2.816-20.634 12.753-23.127 25.624-4.013 21.08 5.651 33.951 21.037 36.104 17.262 2.484 30.155-10.481 34.334-25.197 5.841-2.485 12.703-8.116 12.561-9.724-.119-1.183-.831-2.059-1.923-2.059-1.306 0-6.696 3.88-9.189 5.087l.023-.024zm-22.129-19.897c3.846-5.3 10.424.118 10.234 16.656-.024 2.153-.143 4.211-.404 6.152-14.365-.545-12.608-19.023-9.806-22.808h-.024z"/><path d="M397.668 135.002c-6.458-.639-11.445 1.727-15.719 5.938-2.065 2.153-4.558 4.637-6.862 7.997.357-.97.665-2.058 1.021-3.028 5.01-16.207-5.888-21.294-16.739-16.751-2.517.97-6.103 39.558-6.292 53.943-.262 20.537.569 44.859 2.564 46.373 5.841 4.424 15.41 1.183 14.674-1.94-2.968-13.297-3.681-29.078-1.852-45.828.285-.545.451-1.089.593-1.728 4.061-20.654 14.128-31.467 18.046-34.59 4.44-3.667 5.746 4.637 3.657 20.75-1.829 14.266-9.498 27.445-16.17 23.352-4.939-3.029-4.987 1.301-3.396 3.241 8.999 10.386 34.999.639 39.534-22.808 3.823-19.685-.284-33.502-13.106-34.921h.047zm71.423 36.861c-7.052 11.664-26.38 18.597-31.984 8.328.214-.118.309-.118.404-.213 18.52-7.239 30.274-26.924 23.151-38.044-9.783-15.355-41.268-1.633-45.352 19.898-3.799 19.897 5.129 33.194 20.373 34.803 12.822 1.396 32.885-10.481 36.827-21.72 2.232-6.269-.237-8.328-3.419-3.028v-.024zm-33.883-6.27c2.517-19.684 9.141-27.776 12.323-22.594 3.182 4.968-.831 22.594-12.442 30.71-.332-2.366-.261-5.087.119-8.116z"/><path d="M502.689 134.15c-6.435 3.123-14.437 15.024-19.447 27.894 1.306-6.908 3.419-13.509 5.841-19.992 4.037-11.451-3.11-17.295-15.718-13.935-2.019.544-6.031 15.568-6.198 32.532-.261 20.654.618 32.531 2.731 34.046 5.841 4.542 16.502 1.183 15.457-1.846-.213-1.183-.664-2.366-.973-3.572a13.779 13.779 0 00-.095-.97c-1.9-13.415 6.245-31.988 12.845-36.98 2.232-1.727 5.462.331 3.99 6.814-.523 2.602 16.288 3.667 18.686-8.967 2.565-13.179-5.603-20.655-17.119-15.024zm43.832 5.726c-3.847 1.845-3.348-2.059-1.472-7.784 4.155-11.452-3.135-16.326-15.6-12.753-2.019.544-8.62 10.055-4.702 21.838 1.971 5.938 6.245 8.967 11.279 10.481-1.662 7.784-3.633 12.327-5.96 16.325-.499-.639-.879-1.301-1.282-2.058-1.282-2.153-12.134 1.396-11.445 11.238 1.496 26.688 52.024 27.682 58.672-6.152 4.013-21.08-11.065-39.677-29.467-31.135h-.023zm22.462 28.225c-2.802 22.477-20.254 19.141-32.506 7.571 2.659-6.482 4.274-13.509 5.39-22.689 13.51 1.727 29.181-1.183 27.116 15.142v-.024z"/></g><defs><clipPath id="clip0_3_122"><path fill="#fff" d="M0 0h580v248H0z"/></clipPath></defs></svg>